Lipi-b181014-Tillana_0.ufo
<glyph name="uni0122" format="1">
  <advance width="616"/>
  <unicode hex="0122"/>
  <outline>
    <contour>
      <point x="299" y="-246" type="curve"/>
      <point x="336" y="-211"/>
      <point x="386" y="-147"/>
      <point x="392" y="-88" type="curve"/>
      <point x="378" y="-48"/>
      <point x="336" y="-26"/>
      <point x="298" y="-57" type="curve"/>
      <point x="318" y="-158" type="line"/>
      <point x="270" y="-233" type="line"/>
      <point x="276" y="-243"/>
      <point x="289" y="-247"/>
    </contour>
    <component base="G"/>
  </outline>
</glyph>
<glyph name="uni0123" format="1">
  <advance width="474"/>
  <unicode hex="0123"/>
  <outline>
    <contour>
      <point x="321" y="586" type="curve"/>
      <point x="358" y="621"/>
      <point x="408" y="685"/>
      <point x="414" y="744" type="curve"/>
      <point x="400" y="784"/>
      <point x="358" y="806"/>
      <point x="320" y="775" type="curve"/>
      <point x="340" y="674" type="line"/>
      <point x="292" y="599" type="line"/>
      <point x="298" y="589"/>
      <point x="311" y="585"/>
    </contour>
    <component base="g"/>
  </outline>
</glyph>
<glyph name="Lcaron" format="1">
  <advance width="446"/>
  <unicode hex="013D"/>
  <outline>
    <contour>
      <point x="357" y="652" type="curve"/>
      <point x="399" y="690"/>
      <point x="454" y="761"/>
      <point x="461" y="827" type="curve"/>
      <point x="445" y="871"/>
      <point x="398" y="895"/>
      <point x="356" y="861" type="curve"/>
      <point x="379" y="749" type="line"/>
      <point x="325" y="666" type="line"/>
      <point x="332" y="655"/>
      <point x="346" y="651"/>
    </contour>
    <component base="L"/>
  </outline>
</glyph>
<glyph name="Lslash" format="1">
  <advance width="501"/>
  <unicode hex="0141"/>
  <outline>
    <contour>
      <point x="345" y="428" type="curve"/>
      <point x="161" y="388" type="line"/>
      <point x="52" y="391" type="line"/>
      <point x="32" y="378"/>
      <point x="37" y="348"/>
      <point x="66" y="332" type="curve"/>
      <point x="188" y="352" type="line"/>
      <point x="360" y="373" type="line"/>
      <point x="379" y="394"/>
      <point x="364" y="423"/>
    </contour>
    <component base="L" xOffset="55"/>
  </outline>
</glyph>
<glyph name="uni0145" format="1">
  <advance width="626"/>
  <unicode hex="0145"/>
  <outline>
    <contour>
      <point x="263" y="-246" type="curve"/>
      <point x="300" y="-211"/>
      <point x="350" y="-147"/>
      <point x="356" y="-88" type="curve"/>
      <point x="342" y="-48"/>
      <point x="300" y="-26"/>
      <point x="262" y="-57" type="curve"/>
      <point x="282" y="-158" type="line"/>
      <point x="234" y="-233" type="line"/>
      <point x="240" y="-243"/>
      <point x="253" y="-247"/>
    </contour>
    <component base="N"/>
  </outline>
</glyph>
<glyph name="uni0146" format="1">
  <advance width="500"/>
  <unicode hex="0146"/>
  <outline>
    <contour>
      <point x="172" y="-246" type="curve"/>
      <point x="209" y="-211"/>
      <point x="259" y="-147"/>
      <point x="265" y="-88" type="curve"/>
      <point x="251" y="-48"/>
      <point x="209" y="-26"/>
      <point x="171" y="-57" type="curve"/>
      <point x="191" y="-158" type="line"/>
      <point x="143" y="-233" type="line"/>
      <point x="149" y="-243"/>
      <point x="162" y="-247"/>
    </contour>
    <component base="n"/>
  </outline>
</glyph>
<glyph name="uni0156" format="1">
  <advance width="568"/>
  <unicode hex="0156"/>
  <outline>
    <contour>
      <point x="207" y="-246" type="curve"/>
      <point x="244" y="-211"/>
      <point x="294" y="-147"/>
      <point x="300" y="-88" type="curve"/>
      <point x="286" y="-48"/>
      <point x="244" y="-26"/>
      <point x="206" y="-57" type="curve"/>
      <point x="226" y="-158" type="line"/>
      <point x="178" y="-233" type="line"/>
      <point x="184" y="-243"/>
      <point x="197" y="-247"/>
    </contour>
    <component base="R"/>
  </outline>
</glyph>
<glyph name="uni0157" format="1">
  <advance width="382"/>
  <unicode hex="0157"/>
  <outline>
    <contour>
      <point x="7" y="-246" type="curve"/>
      <point x="44" y="-211"/>
      <point x="94" y="-147"/>
      <point x="100" y="-88" type="curve"/>
      <point x="86" y="-48"/>
      <point x="44" y="-26"/>
      <point x="6" y="-57" type="curve"/>
      <point x="26" y="-158" type="line"/>
      <point x="-22" y="-233" type="line"/>
      <point x="-16" y="-243"/>
      <point x="-3" y="-247"/>
    </contour>
    <component base="r"/>
  </outline>
</glyph>
<glyph name="uni0218" format="1">
  <advance width="565"/>
  <unicode hex="0218"/>
  <outline>
    <contour>
      <point x="201" y="-246" type="curve"/>
      <point x="238" y="-211"/>
      <point x="288" y="-147"/>
      <point x="294" y="-88" type="curve"/>
      <point x="280" y="-48"/>
      <point x="238" y="-26"/>
      <point x="200" y="-57" type="curve"/>
      <point x="220" y="-158" type="line"/>
      <point x="172" y="-233" type="line"/>
      <point x="178" y="-243"/>
      <point x="191" y="-247"/>
    </contour>
    <component base="S"/>
  </outline>
</glyph>
<glyph name="uni021A" format="1">
  <advance width="537"/>
  <unicode hex="021A"/>
  <outline>
    <contour>
      <point x="177" y="-246" type="curve"/>
      <point x="214" y="-211"/>
      <point x="264" y="-147"/>
      <point x="270" y="-88" type="curve"/>
      <point x="256" y="-48"/>
      <point x="214" y="-26"/>
      <point x="176" y="-57" type="curve"/>
      <point x="196" y="-158" type="line"/>
      <point x="148" y="-233" type="line"/>
      <point x="154" y="-243"/>
      <point x="167" y="-247"/>
    </contour>
    <component base="T"/>
  </outline>
</glyph>
<glyph name="uni021B" format="1">
  <advance width="372"/>
  <unicode hex="021B"/>
  <outline>
    <contour>
      <point x="130" y="-246" type="curve"/>
      <point x="167" y="-211"/>
      <point x="217" y="-147"/>
      <point x="223" y="-88" type="curve"/>
      <point x="209" y="-48"/>
      <point x="167" y="-26"/>
      <point x="129" y="-57" type="curve"/>
      <point x="149" y="-158" type="line"/>
      <point x="101" y="-233" type="line"/>
      <point x="107" y="-243"/>
      <point x="120" y="-247"/>
    </contour>
    <component base="t"/>
  </outline>
</glyph>
<glyph name="dvFour" format="1">
  <advance width="529"/>
  <unicode hex="096A"/>
  <outline>
    <contour>
      <point x="77" y="602" type="curve"/>
      <point x="223" y="498"/>
      <point x="336" y="364"/>
      <point x="328" y="123" type="curve"/>
      <point x="304" y="83"/>
      <point x="278" y="64"/>
      <point x="228" y="47" type="curve"/>
      <point x="185" y="79"/>
      <point x="157" y="101"/>
      <point x="147" y="157" type="curve"/>
      <point x="242" y="345"/>
      <point x="407" y="492"/>
      <point x="580" y="622" type="curve"/>
      <point x="582" y="642"/>
      <point x="578" y="659"/>
      <point x="548" y="656" type="curve"/>
      <point x="382" y="538"/>
      <point x="194" y="380"/>
      <point x="80" y="159" type="curve"/>
      <point x="88" y="84"/>
      <point x="146" y="26"/>
      <point x="229" y="0" type="curve"/>
      <point x="307" y="15"/>
      <point x="360" y="56"/>
      <point x="391" y="114" type="curve"/>
      <point x="393" y="376"/>
      <point x="275" y="549"/>
      <point x="126" y="654" type="curve"/>
      <point x="105" y="650"/>
      <point x="90" y="638"/>
    </contour>
  </outline>
</glyph>
<glyph name="fi" format="1">
  <advance width="454"/>
  <unicode hex="FB01"/>
  <outline>
    <contour>
      <point x="340" y="368" type="line"/>
      <point x="318" y="256"/>
      <point x="294" y="137"/>
      <point x="262" y="31" type="curve"/>
      <point x="280" y="2"/>
      <point x="316" y="-4"/>
      <point x="357" y="0" type="curve"/>
      <point x="372" y="151"/>
      <point x="383" y="274"/>
      <point x="397" y="394" type="curve"/>
      <point x="428" y="499" type="line"/>
      <point x="407" y="522"/>
      <point x="381" y="517"/>
      <point x="337" y="497" type="curve"/>
    </contour>
    <contour>
      <point x="289" y="761" type="curve"/>
      <point x="332" y="741"/>
      <point x="346" y="692"/>
      <point x="342" y="620" type="curve"/>
      <point x="393" y="604"/>
      <point x="424" y="611"/>
      <point x="436" y="634" type="curve"/>
      <point x="436" y="706"/>
      <point x="378" y="806"/>
      <point x="293" y="814" type="curve"/>
      <point x="221" y="806"/>
      <point x="179" y="769"/>
      <point x="132" y="714" type="curve"/>
      <point x="134" y="467" type="line"/>
      <point x="108" y="292"/>
      <point x="82" y="168"/>
      <point x="37" y="24" type="curve"/>
      <point x="52" y="2"/>
      <point x="77" y="-4"/>
      <point x="122" y="0" type="curve"/>
      <point x="158" y="207"/>
      <point x="208" y="573"/>
      <point x="205" y="718" type="curve"/>
      <point x="234" y="741"/>
      <point x="260" y="754"/>
    </contour>
    <contour>
      <point x="150" y="460" type="line"/>
      <point x="1" y="459" type="line"/>
      <point x="-17" y="437"/>
      <point x="-18" y="410"/>
      <point x="-1" y="389" type="curve"/>
      <point x="174" y="422" type="line"/>
      <point x="363" y="433" type="line"/>
      <point x="383" y="462"/>
      <point x="382" y="492"/>
      <point x="365" y="503" type="curve"/>
    </contour>
  </outline>
</glyph>
<glyph name="fl" format="1">
  <advance width="516"/>
  <unicode hex="FB02"/>
  <outline>
    <contour>
      <point x="146" y="438" type="line"/>
      <point x="-3" y="437" type="line"/>
      <point x="-22" y="416"/>
      <point x="-23" y="389"/>
      <point x="-5" y="367" type="curve"/>
      <point x="170" y="401" type="line"/>
      <point x="314" y="408" type="line"/>
      <point x="335" y="437"/>
      <point x="334" y="468"/>
      <point x="316" y="478" type="curve"/>
    </contour>
    <contour>
      <point x="511" y="720" type="line"/>
      <point x="486" y="759"/>
      <point x="442" y="800"/>
      <point x="361" y="813" type="curve"/>
      <point x="266" y="806"/>
      <point x="192" y="773"/>
      <point x="131" y="713" type="curve"/>
      <point x="127" y="440" type="line"/>
      <point x="102" y="262"/>
      <point x="79" y="166"/>
      <point x="35" y="24" type="curve"/>
      <point x="50" y="2"/>
      <point x="75" y="-4"/>
      <point x="120" y="0" type="curve"/>
      <point x="158" y="211"/>
      <point x="204" y="568"/>
      <point x="203" y="697" type="curve"/>
      <point x="257" y="732"/>
      <point x="323" y="765"/>
      <point x="414" y="738" type="curve"/>
      <point x="415" y="540" type="line"/>
      <point x="394" y="395"/>
      <point x="367" y="254"/>
      <point x="311" y="31" type="curve"/>
      <point x="328" y="2"/>
      <point x="365" y="-4"/>
      <point x="406" y="0" type="curve"/>
      <point x="431" y="212"/>
      <point x="450" y="374"/>
      <point x="473" y="580" type="curve"/>
    </contour>
  </outline>
</glyph>
<glyph name="dvCH_NA" format="1">
  <advance width="1074"/>
  <outline>
    <contour>
      <point x="657" y="573" type="line"/>
      <point x="670" y="581"/>
      <point x="678" y="595"/>
      <point x="682" y="608" type="curve"/>
      <point x="670" y="619" type="line"/>
      <point x="39" y="619" type="line"/>
      <point x="26" y="611"/>
      <point x="18" y="597"/>
      <point x="14" y="584" type="curve"/>
      <point x="26" y="573" type="line"/>
    </contour>
    <contour>
      <point x="480" y="137" type="curve"/>
      <point x="483" y="203"/>
      <point x="433" y="363"/>
      <point x="444" y="428" type="curve" smooth="yes"/>
      <point x="447" y="442"/>
      <point x="453" y="452"/>
      <point x="463" y="455" type="curve"/>
      <point x="483" y="446"/>
      <point x="504" y="425"/>
      <point x="503" y="412" type="curve" smooth="yes"/>
      <point x="499" y="329"/>
      <point x="282" y="160"/>
      <point x="140" y="119" type="curve"/>
      <point x="129" y="128" type="line"/>
      <point x="170" y="189"/>
      <point x="240" y="267"/>
      <point x="298" y="317" type="curve"/>
      <point x="305" y="352"/>
      <point x="288" y="380"/>
      <point x="246" y="391" type="curve"/>
      <point x="200" y="380"/>
      <point x="150" y="366"/>
      <point x="110" y="363" type="curve"/>
      <point x="102" y="377" type="line"/>
      <point x="151" y="432"/>
      <point x="247" y="519"/>
      <point x="344" y="573" type="curve"/>
      <point x="312" y="615" type="line"/>
      <point x="213" y="565"/>
      <point x="92" y="460"/>
      <point x="38" y="392" type="curve"/>
      <point x="34" y="360"/>
      <point x="62" y="322"/>
      <point x="95" y="304" type="curve"/>
      <point x="143" y="307"/>
      <point x="196" y="324"/>
      <point x="233" y="335" type="curve"/>
      <point x="237" y="330" type="line"/>
      <point x="177" y="288"/>
      <point x="118" y="216"/>
      <point x="64" y="139" type="curve"/>
      <point x="63" y="104"/>
      <point x="101" y="74"/>
      <point x="140" y="58" type="curve"/>
      <point x="277" y="93"/>
      <point x="558" y="284"/>
      <point x="565" y="414" type="curve" smooth="yes"/>
      <point x="567" y="451"/>
      <point x="517" y="496"/>
      <point x="478" y="512" type="curve"/>
      <point x="438" y="509"/>
      <point x="401" y="475"/>
      <point x="389" y="458" type="curve"/>
      <point x="367" y="355"/>
      <point x="420" y="261"/>
      <point x="430" y="136" type="curve"/>
      <point x="397" y="84"/>
      <point x="334" y="48"/>
      <point x="274" y="15" type="curve"/>
      <point x="269" y="3"/>
      <point x="273" y="-12"/>
      <point x="304" y="-30" type="curve"/>
      <point x="369" y="2"/>
      <point x="477" y="82"/>
    </contour>
    <contour>
      <point x="1202" y="573" type="line"/>
      <point x="1215" y="581"/>
      <point x="1223" y="595"/>
      <point x="1227" y="608" type="curve"/>
      <point x="1215" y="619" type="line"/>
      <point x="614" y="619" type="line"/>
      <point x="601" y="611"/>
      <point x="593" y="597"/>
      <point x="589" y="584" type="curve"/>
      <point x="601" y="573" type="line"/>
    </contour>
    <contour>
      <point x="1077" y="507" type="line"/>
      <point x="1056" y="530"/>
      <point x="1027" y="541"/>
      <point x="993" y="543" type="curve"/>
      <point x="980" y="485" type="line"/>
      <point x="990" y="480" type="line"/>
      <point x="882" y="23" type="line"/>
      <point x="896" y="6"/>
      <point x="920" y="-5"/>
      <point x="963" y="0" type="curve"/>
      <point x="1028" y="400" type="line"/>
    </contour>
    <contour>
      <point x="720" y="335" type="line"/>
      <point x="730" y="299"/>
      <point x="735" y="267"/>
      <point x="727" y="227" type="curve"/>
      <point x="718" y="220" type="line"/>
      <point x="683" y="229"/>
      <point x="661" y="248"/>
      <point x="640" y="284" type="curve"/>
      <point x="635" y="250" type="line"/>
      <point x="769" y="337"/>
      <point x="889" y="416"/>
      <point x="1023" y="515" type="curve"/>
      <point x="993" y="543" type="line"/>
      <point x="878" y="454"/>
      <point x="741" y="372"/>
      <point x="619" y="297" type="curve"/>
      <point x="604" y="283"/>
      <point x="597" y="264"/>
      <point x="594" y="242" type="curve"/>
      <point x="624" y="192"/>
      <point x="677" y="169"/>
      <point x="729" y="164" type="curve"/>
      <point x="754" y="172"/>
      <point x="776" y="186"/>
      <point x="790" y="200" type="curve"/>
      <point x="792" y="256"/>
      <point x="785" y="315"/>
      <point x="759" y="363" type="curve"/>
    </contour>
  </outline>
</glyph>
<glyph name="dvDDH_R" format="1">
  <advance width="488"/>
  <outline>
    <contour>
      <point x="310" y="-113" type="curve"/>
      <point x="274" y="-64"/>
      <point x="275" y="-46"/>
      <point x="271" y="8" type="curve"/>
      <point x="251" y="24"/>
      <point x="233" y="30"/>
      <point x="211" y="30" type="curve"/>
      <point x="159" y="0"/>
      <point x="119" y="-44"/>
      <point x="76" y="-99" type="curve"/>
      <point x="75" y="-117"/>
      <point x="90" y="-138"/>
      <point x="139" y="-136" type="curve"/>
      <point x="158" y="-77"/>
      <point x="187" y="-37"/>
      <point x="222" y="-7" type="curve"/>
      <point x="227" y="-9" type="line"/>
      <point x="222" y="-56"/>
      <point x="239" y="-97"/>
      <point x="275" y="-141" type="curve"/>
      <point x="297" y="-137"/>
      <point x="312" y="-128"/>
    </contour>
    <contour>
      <point x="598" y="573" type="line"/>
      <point x="611" y="581"/>
      <point x="619" y="595"/>
      <point x="623" y="608" type="curve"/>
      <point x="611" y="619" type="line"/>
      <point x="53" y="619" type="line"/>
      <point x="40" y="611"/>
      <point x="32" y="597"/>
      <point x="28" y="584" type="curve"/>
      <point x="40" y="573" type="line"/>
    </contour>
    <contour>
      <point x="274" y="610" type="curve"/>
      <point x="240" y="582" type="line"/>
      <point x="297" y="543"/>
      <point x="329" y="526"/>
      <point x="348" y="490" type="curve"/>
      <point x="344" y="481" type="line"/>
      <point x="298" y="424"/>
      <point x="124" y="346"/>
      <point x="56" y="285" type="curve"/>
      <point x="41" y="266"/>
      <point x="33" y="239"/>
      <point x="32" y="219" type="curve"/>
      <point x="55" y="149"/>
      <point x="145" y="62"/>
      <point x="225" y="62" type="curve"/>
      <point x="299" y="62"/>
      <point x="444" y="152"/>
      <point x="444" y="208" type="curve"/>
      <point x="444" y="242"/>
      <point x="389" y="295"/>
      <point x="335" y="300" type="curve"/>
      <point x="247" y="234"/>
      <point x="228" y="211"/>
      <point x="146" y="147" type="curve"/>
      <point x="172" y="118" type="line"/>
      <point x="245" y="174"/>
      <point x="294" y="217"/>
      <point x="337" y="245" type="curve"/>
      <point x="356" y="238"/>
      <point x="375" y="221"/>
      <point x="378" y="205" type="curve"/>
      <point x="353" y="157"/>
      <point x="297" y="120"/>
      <point x="226" y="105" type="curve"/>
      <point x="166" y="125"/>
      <point x="106" y="180"/>
      <point x="106" y="230" type="curve"/>
      <point x="106" y="288"/>
      <point x="330" y="369"/>
      <point x="391" y="450" type="curve"/>
      <point x="406" y="472"/>
      <point x="409" y="487"/>
      <point x="403" y="504" type="curve"/>
      <point x="387" y="546"/>
      <point x="325" y="577"/>
    </contour>
    <contour>
      <point x="304" y="-312" type="curve"/>
      <point x="317" y="-306"/>
      <point x="324" y="-296"/>
      <point x="319" y="-285" type="curve"/>
      <point x="254" y="-225"/>
      <point x="153" y="-174"/>
      <point x="71" y="-154" type="curve"/>
      <point x="48" y="-160"/>
      <point x="39" y="-179"/>
      <point x="43" y="-211" type="curve"/>
      <point x="153" y="-232"/>
      <point x="215" y="-258"/>
    </contour>
  </outline>
</glyph>
<glyph name="dvH_MA" format="1">
  <advance width="598"/>
  <outline>
    <contour>
      <point x="726" y="573" type="line"/>
      <point x="739" y="581"/>
      <point x="747" y="595"/>
      <point x="751" y="608" type="curve"/>
      <point x="739" y="619" type="line"/>
      <point x="32" y="619" type="line"/>
      <point x="19" y="611"/>
      <point x="11" y="597"/>
      <point x="7" y="584" type="curve"/>
      <point x="19" y="573" type="line"/>
    </contour>
    <contour>
      <point x="194" y="398" type="curve"/>
      <point x="196" y="406" type="line"/>
      <point x="279" y="415"/>
      <point x="347" y="431"/>
      <point x="402" y="461" type="curve"/>
      <point x="422" y="477"/>
      <point x="434" y="497"/>
      <point x="433" y="523" type="curve"/>
      <point x="421" y="558"/>
      <point x="392" y="579"/>
      <point x="345" y="603" type="curve"/>
      <point x="310" y="575" type="line"/>
      <point x="334" y="563"/>
      <point x="370" y="543"/>
      <point x="384" y="519" type="curve"/>
      <point x="382" y="512" type="line"/>
      <point x="341" y="483"/>
      <point x="262" y="460"/>
      <point x="168" y="457" type="curve"/>
      <point x="144" y="447"/>
      <point x="120" y="390"/>
      <point x="135" y="367" type="curve"/>
      <point x="169" y="358"/>
      <point x="247" y="325"/>
      <point x="265" y="314" type="curve"/>
      <point x="262" y="308" type="line"/>
      <point x="109" y="312"/>
      <point x="0" y="229"/>
      <point x="0" y="127" type="curve" smooth="yes"/>
      <point x="0" y="52"/>
      <point x="86" y="-58"/>
      <point x="202" y="-65" type="curve"/>
      <point x="286" y="-57"/>
      <point x="358" y="-25"/>
      <point x="404" y="11" type="curve"/>
      <point x="401" y="39"/>
      <point x="387" y="56"/>
      <point x="366" y="57" type="curve"/>
      <point x="317" y="22"/>
      <point x="272" y="-6"/>
      <point x="202" y="-15" type="curve"/>
      <point x="129" y="-7"/>
      <point x="72" y="76"/>
      <point x="65" y="132" type="curve"/>
      <point x="81" y="216"/>
      <point x="162" y="264"/>
      <point x="265" y="270" type="curve"/>
      <point x="300" y="231"/>
      <point x="282" y="169"/>
      <point x="254" y="105" type="curve"/>
      <point x="244" y="99" type="line"/>
      <point x="223" y="104"/>
      <point x="194" y="117"/>
      <point x="177" y="152" type="curve"/>
      <point x="168" y="126" type="line"/>
      <point x="318" y="223"/>
      <point x="401" y="268"/>
      <point x="525" y="355" type="curve"/>
      <point x="507" y="392" type="line"/>
      <point x="390" y="306"/>
      <point x="290" y="250"/>
      <point x="152" y="167" type="curve"/>
      <point x="136" y="155"/>
      <point x="128" y="130"/>
      <point x="129" y="111" type="curve"/>
      <point x="157" y="73"/>
      <point x="201" y="58"/>
      <point x="243" y="51" type="curve"/>
      <point x="265" y="57"/>
      <point x="279" y="63"/>
      <point x="297" y="79" type="curve"/>
      <point x="339" y="180"/>
      <point x="348" y="229"/>
      <point x="337" y="311" type="curve"/>
      <point x="304" y="349"/>
      <point x="254" y="375"/>
    </contour>
    <contour>
      <point x="591" y="356" type="line"/>
      <point x="570" y="379"/>
      <point x="541" y="390"/>
      <point x="507" y="392" type="curve"/>
      <point x="494" y="334" type="line"/>
      <point x="504" y="329" type="line"/>
      <point x="431" y="23" type="line"/>
      <point x="445" y="6"/>
      <point x="469" y="-5"/>
      <point x="512" y="0" type="curve"/>
      <point x="547" y="288" type="line"/>
    </contour>
  </outline>
</glyph>
<glyph name="dvLL_YA" format="1">
  <advance width="1266"/>
  <outline>
    <contour>
      <point x="872" y="573" type="line"/>
      <point x="885" y="581"/>
      <point x="893" y="595"/>
      <point x="897" y="608" type="curve"/>
      <point x="885" y="619" type="line"/>
      <point x="33" y="619" type="line"/>
      <point x="20" y="611"/>
      <point x="12" y="597"/>
      <point x="8" y="584" type="curve"/>
      <point x="20" y="573" type="line"/>
    </contour>
    <contour>
      <point x="333" y="141" type="line"/>
      <point x="369" y="85"/>
      <point x="417" y="27"/>
      <point x="474" y="0" type="curve"/>
      <point x="605" y="27"/>
      <point x="698" y="165"/>
      <point x="698" y="285" type="curve" smooth="yes"/>
      <point x="698" y="348"/>
      <point x="659" y="440"/>
      <point x="613" y="440" type="curve" smooth="yes"/>
      <point x="507" y="440"/>
      <point x="406" y="192"/>
      <point x="167" y="55" type="curve"/>
      <point x="108" y="77"/>
      <point x="83" y="117"/>
      <point x="75" y="168" type="curve"/>
      <point x="84" y="235"/>
      <point x="156" y="319"/>
      <point x="232" y="349" type="curve"/>
      <point x="272" y="303"/>
      <point x="311" y="245"/>
      <point x="344" y="177" type="curve"/>
      <point x="377" y="207" type="line"/>
      <point x="349" y="281"/>
      <point x="303" y="351"/>
      <point x="249" y="411" type="curve"/>
      <point x="120" y="398"/>
      <point x="8" y="244"/>
      <point x="8" y="176" type="curve" smooth="yes"/>
      <point x="8" y="95"/>
      <point x="76" y="20"/>
      <point x="171" y="0" type="curve"/>
      <point x="375" y="87"/>
      <point x="482" y="310"/>
      <point x="608" y="377" type="curve"/>
      <point x="628" y="342"/>
      <point x="638" y="310"/>
      <point x="638" y="277" type="curve" smooth="yes"/>
      <point x="638" y="190"/>
      <point x="573" y="98"/>
      <point x="486" y="56" type="curve"/>
      <point x="442" y="82"/>
      <point x="399" y="129"/>
      <point x="366" y="180" type="curve"/>
    </contour>
    <contour>
      <point x="1308" y="619" type="line"/>
      <point x="1292" y="641"/>
      <point x="1267" y="649"/>
      <point x="1221" y="649" type="curve"/>
      <point x="1146" y="328" type="line"/>
      <point x="1165" y="313" type="line"/>
      <point x="1126" y="241" type="line"/>
      <point x="1074" y="23" type="line"/>
      <point x="1088" y="6"/>
      <point x="1112" y="-5"/>
      <point x="1155" y="0" type="curve"/>
      <point x="1226" y="441" type="line"/>
    </contour>
    <contour>
      <point x="1394" y="573" type="line"/>
      <point x="1407" y="581"/>
      <point x="1415" y="595"/>
      <point x="1419" y="608" type="curve"/>
      <point x="1407" y="619" type="line"/>
      <point x="778" y="619" type="line"/>
      <point x="765" y="611"/>
      <point x="757" y="597"/>
      <point x="753" y="584" type="curve"/>
      <point x="765" y="573" type="line"/>
    </contour>
    <contour>
      <point x="832" y="550" type="curve"/>
      <point x="830" y="533"/>
      <point x="845" y="521"/>
      <point x="864" y="516" type="curve"/>
      <point x="902" y="547"/>
      <point x="937" y="568"/>
      <point x="976" y="568" type="curve" smooth="yes"/>
      <point x="996" y="568"/>
      <point x="1022" y="556"/>
      <point x="1022" y="536" type="curve" smooth="yes"/>
      <point x="1022" y="442"/>
      <point x="760" y="358"/>
      <point x="760" y="274" type="curve" smooth="yes"/>
      <point x="760" y="225"/>
      <point x="849" y="151"/>
      <point x="902" y="151" type="curve" smooth="yes"/>
      <point x="982" y="151"/>
      <point x="1134" y="276"/>
      <point x="1199" y="385" type="curve"/>
      <point x="1166" y="413" type="line"/>
      <point x="1111" y="315"/>
      <point x="963" y="201"/>
      <point x="912" y="201" type="curve" smooth="yes"/>
      <point x="875" y="201"/>
      <point x="830" y="244"/>
      <point x="830" y="270" type="curve" smooth="yes"/>
      <point x="830" y="327"/>
      <point x="1092" y="432"/>
      <point x="1092" y="539" type="curve" smooth="yes"/>
      <point x="1092" y="584"/>
      <point x="1022" y="619"/>
      <point x="973" y="619" type="curve" smooth="yes"/>
      <point x="929" y="619"/>
      <point x="862" y="584"/>
    </contour>
  </outline>
</glyph>
<glyph name="dvL_HA" format="1">
  <advance width="791"/>
  <outline>
    <contour>
      <point x="494" y="0" type="move" name="blwm"/>
    </contour>
    <contour>
      <point x="572" y="649" type="move" name="abvm_Ekaar"/>
    </contour>
    <contour>
      <point x="310" y="283" type="line"/>
      <point x="313" y="296"/>
      <point x="314" y="310"/>
      <point x="313" y="324" type="curve" smooth="yes"/>
      <point x="310" y="372"/>
      <point x="286" y="419"/>
      <point x="247" y="442" type="curve"/>
      <point x="223" y="446"/>
      <point x="173" y="442"/>
      <point x="151" y="434" type="curve"/>
      <point x="98" y="406"/>
      <point x="27" y="315"/>
      <point x="27" y="253" type="curve" smooth="yes"/>
      <point x="27" y="173"/>
      <point x="75" y="71"/>
      <point x="173" y="-3" type="curve"/>
      <point x="197" y="1"/>
      <point x="221" y="22"/>
      <point x="228" y="46" type="curve"/>
      <point x="144" y="104"/>
      <point x="107" y="175"/>
      <point x="107" y="239" type="curve" smooth="yes"/>
      <point x="107" y="300"/>
      <point x="140" y="354"/>
      <point x="198" y="384" type="curve"/>
      <point x="229" y="372"/>
      <point x="244" y="350"/>
      <point x="248" y="325" type="curve" smooth="yes"/>
      <point x="253" y="296"/>
      <point x="242" y="262"/>
      <point x="224" y="232" type="curve"/>
      <point x="234" y="214"/>
      <point x="280" y="192"/>
      <point x="304" y="195" type="curve"/>
      <point x="363" y="239"/>
      <point x="471" y="342"/>
      <point x="526" y="392" type="curve"/>
      <point x="488" y="446" type="line"/>
      <point x="429" y="370"/>
      <point x="385" y="327"/>
      <point x="315" y="279" type="curve"/>
    </contour>
    <contour>
      <point x="572" y="573" type="line"/>
      <point x="585" y="581"/>
      <point x="593" y="595"/>
      <point x="597" y="608" type="curve"/>
      <point x="585" y="619" type="line"/>
      <point x="34" y="619" type="line"/>
      <point x="21" y="611"/>
      <point x="13" y="597"/>
      <point x="9" y="584" type="curve"/>
      <point x="21" y="573" type="line"/>
    </contour>
    <contour>
      <point x="870" y="573" type="line"/>
      <point x="883" y="581"/>
      <point x="891" y="595"/>
      <point x="895" y="608" type="curve"/>
      <point x="883" y="619" type="line"/>
      <point x="413" y="619" type="line"/>
      <point x="400" y="611"/>
      <point x="392" y="597"/>
      <point x="388" y="584" type="curve"/>
      <point x="400" y="573" type="line"/>
    </contour>
    <contour>
      <point x="679" y="603" type="curve"/>
      <point x="644" y="575" type="line"/>
      <point x="668" y="563"/>
      <point x="704" y="543"/>
      <point x="718" y="519" type="curve"/>
      <point x="716" y="512" type="line"/>
      <point x="675" y="483"/>
      <point x="596" y="460"/>
      <point x="502" y="457" type="curve"/>
      <point x="478" y="447"/>
      <point x="454" y="390"/>
      <point x="469" y="367" type="curve"/>
      <point x="505" y="358"/>
      <point x="575" y="325"/>
      <point x="591" y="314" type="curve"/>
      <point x="588" y="308" type="line"/>
      <point x="466" y="313"/>
      <point x="344" y="241"/>
      <point x="344" y="152" type="curve" smooth="yes"/>
      <point x="344" y="71"/>
      <point x="449" y="-13"/>
      <point x="555" y="-17" type="curve"/>
      <point x="619" y="-13"/>
      <point x="696" y="13"/>
      <point x="727" y="46" type="curve"/>
      <point x="724" y="74"/>
      <point x="710" y="91"/>
      <point x="689" y="92" type="curve"/>
      <point x="655" y="60"/>
      <point x="605" y="38"/>
      <point x="555" y="33" type="curve"/>
      <point x="471" y="45"/>
      <point x="417" y="99"/>
      <point x="409" y="152" type="curve"/>
      <point x="431" y="227"/>
      <point x="525" y="270"/>
      <point x="577" y="270" type="curve" smooth="yes"/>
      <point x="599" y="270"/>
      <point x="608" y="262"/>
      <point x="608" y="250" type="curve" smooth="yes"/>
      <point x="608" y="236"/>
      <point x="595" y="217"/>
      <point x="575" y="199" type="curve"/>
      <point x="576" y="186"/>
      <point x="597" y="169"/>
      <point x="625" y="171" type="curve"/>
      <point x="654" y="204"/>
      <point x="675" y="248"/>
      <point x="675" y="282" type="curve" smooth="yes"/>
      <point x="675" y="331"/>
      <point x="598" y="364"/>
      <point x="528" y="398" type="curve"/>
      <point x="530" y="406" type="line"/>
      <point x="613" y="415"/>
      <point x="681" y="431"/>
      <point x="736" y="461" type="curve"/>
      <point x="756" y="477"/>
      <point x="768" y="497"/>
      <point x="767" y="523" type="curve"/>
      <point x="755" y="558"/>
      <point x="726" y="579"/>
    </contour>
  </outline>
</glyph>
<glyph name="dvNN_MA" format="1">
  <advance width="876"/>
  <outline>
    <contour>
      <point x="556" y="608" type="curve"/>
      <point x="544" y="619" type="line"/>
      <point x="232" y="619" type="line"/>
      <point x="158" y="573"/>
      <point x="51" y="422"/>
      <point x="51" y="354" type="curve" smooth="yes"/>
      <point x="51" y="284"/>
      <point x="121" y="184"/>
      <point x="183" y="184" type="curve" smooth="yes"/>
      <point x="239" y="184"/>
      <point x="350" y="240"/>
      <point x="388" y="339" type="curve"/>
      <point x="400" y="399"/>
      <point x="384" y="491"/>
      <point x="350" y="573" type="curve"/>
      <point x="531" y="573" type="line"/>
      <point x="544" y="581"/>
      <point x="552" y="595"/>
    </contour>
    <contour>
      <point x="279" y="573" type="line"/>
      <point x="314" y="491"/>
      <point x="325" y="431"/>
      <point x="325" y="370" type="curve"/>
      <point x="325" y="325"/>
      <point x="243" y="243"/>
      <point x="189" y="243" type="curve" smooth="yes"/>
      <point x="153" y="243"/>
      <point x="123" y="312"/>
      <point x="123" y="348" type="curve" smooth="yes"/>
      <point x="123" y="401"/>
      <point x="181" y="504"/>
      <point x="263" y="573" type="curve"/>
    </contour>
    <contour>
      <point x="1004" y="573" type="line"/>
      <point x="1017" y="581"/>
      <point x="1025" y="595"/>
      <point x="1029" y="608" type="curve"/>
      <point x="1017" y="619" type="line"/>
      <point x="434" y="619" type="line"/>
      <point x="421" y="611"/>
      <point x="413" y="597"/>
      <point x="409" y="584" type="curve"/>
      <point x="421" y="573" type="line"/>
    </contour>
    <contour>
      <point x="517" y="220" type="line"/>
      <point x="487" y="229"/>
      <point x="469" y="245"/>
      <point x="448" y="281" type="curve"/>
      <point x="438" y="253" type="line"/>
      <point x="588" y="350"/>
      <point x="702" y="428"/>
      <point x="826" y="515" type="curve"/>
      <point x="796" y="543" type="line"/>
      <point x="677" y="457"/>
      <point x="555" y="377"/>
      <point x="423" y="294" type="curve"/>
      <point x="407" y="283"/>
      <point x="400" y="261"/>
      <point x="399" y="242" type="curve"/>
      <point x="428" y="189"/>
      <point x="482" y="166"/>
      <point x="537" y="161" type="curve"/>
      <point x="562" y="169"/>
      <point x="577" y="180"/>
      <point x="591" y="194" type="curve"/>
      <point x="617" y="296"/>
      <point x="652" y="470"/>
      <point x="671" y="609" type="curve"/>
      <point x="577" y="597" type="line"/>
      <point x="587" y="473" type="line"/>
      <point x="578" y="378"/>
      <point x="555" y="298"/>
      <point x="526" y="227" type="curve"/>
    </contour>
    <contour>
      <point x="880" y="507" type="line"/>
      <point x="859" y="530"/>
      <point x="830" y="541"/>
      <point x="796" y="543" type="curve"/>
      <point x="783" y="485" type="line"/>
      <point x="793" y="480" type="line"/>
      <point x="685" y="23" type="line"/>
      <point x="699" y="6"/>
      <point x="723" y="-5"/>
      <point x="766" y="0" type="curve"/>
      <point x="831" y="400" type="line"/>
    </contour>
  </outline>
</glyph>
<glyph name="dvP_SHA" format="1">
  <advance width="817"/>
  <outline>
    <contour>
      <point x="418" y="573" type="line"/>
      <point x="431" y="581"/>
      <point x="439" y="595"/>
      <point x="443" y="608" type="curve"/>
      <point x="431" y="619" type="line"/>
      <point x="34" y="619" type="line"/>
      <point x="21" y="611"/>
      <point x="13" y="597"/>
      <point x="9" y="584" type="curve"/>
      <point x="21" y="573" type="line"/>
    </contour>
    <contour>
      <point x="121" y="598" type="curve"/>
      <point x="88" y="469"/>
      <point x="54" y="343"/>
      <point x="21" y="215" type="curve"/>
      <point x="39" y="187"/>
      <point x="86" y="168"/>
      <point x="113" y="170" type="curve"/>
      <point x="163" y="197"/>
      <point x="246" y="247"/>
      <point x="316" y="293" type="curve"/>
      <point x="290" y="328" type="line"/>
      <point x="242" y="301"/>
      <point x="167" y="263"/>
      <point x="120" y="241" type="curve"/>
      <point x="111" y="246" type="line"/>
      <point x="122" y="307"/>
      <point x="134" y="369"/>
      <point x="145" y="430" type="curve"/>
      <point x="213" y="575" type="line"/>
      <point x="190" y="590"/>
      <point x="150" y="600"/>
    </contour>
    <contour>
      <point x="859" y="619" type="line"/>
      <point x="843" y="641"/>
      <point x="818" y="649"/>
      <point x="772" y="649" type="curve"/>
      <point x="625" y="23" type="line"/>
      <point x="639" y="6"/>
      <point x="663" y="-5"/>
      <point x="706" y="0" type="curve"/>
      <point x="777" y="441" type="line"/>
    </contour>
    <contour>
      <point x="945" y="573" type="line"/>
      <point x="958" y="581"/>
      <point x="966" y="595"/>
      <point x="970" y="608" type="curve"/>
      <point x="958" y="619" type="line"/>
      <point x="680" y="619" type="line"/>
      <point x="667" y="611"/>
      <point x="659" y="597"/>
      <point x="655" y="584" type="curve"/>
      <point x="667" y="573" type="line"/>
    </contour>
    <contour>
      <point x="563" y="523" type="curve"/>
      <point x="563" y="427"/>
      <point x="455" y="338"/>
      <point x="363" y="331" type="curve" smooth="yes"/>
      <point x="346" y="329"/>
      <point x="330" y="331"/>
      <point x="315" y="335" type="curve"/>
      <point x="275" y="332"/>
      <point x="256" y="299"/>
      <point x="245" y="262" type="curve"/>
      <point x="311" y="197"/>
      <point x="418" y="70"/>
      <point x="485" y="0" type="curve"/>
      <point x="499" y="-1"/>
      <point x="517" y="11"/>
      <point x="524" y="35" type="curve"/>
      <point x="464" y="102"/>
      <point x="370" y="214"/>
      <point x="329" y="264" type="curve"/>
      <point x="334" y="272" type="line"/>
      <point x="490" y="279"/>
      <point x="629" y="396"/>
      <point x="629" y="525" type="curve" smooth="yes"/>
      <point x="629" y="607"/>
      <point x="579" y="689"/>
      <point x="512" y="689" type="curve" smooth="yes"/>
      <point x="435" y="689"/>
      <point x="351" y="593"/>
      <point x="351" y="552" type="curve" smooth="yes"/>
      <point x="351" y="526"/>
      <point x="389" y="479"/>
      <point x="418" y="464" type="curve"/>
      <point x="561" y="443" type="line"/>
      <point x="571" y="480" type="line"/>
      <point x="445" y="508" type="line"/>
      <point x="432" y="516"/>
      <point x="411" y="539"/>
      <point x="411" y="555" type="curve" smooth="yes"/>
      <point x="411" y="583"/>
      <point x="471" y="636"/>
      <point x="503" y="636" type="curve" smooth="yes"/>
      <point x="544" y="636"/>
      <point x="563" y="581"/>
    </contour>
  </outline>
</glyph>
<glyph name="dvTTH_NA" format="1">
  <advance width="435"/>
  <outline>
    <contour>
      <point x="563" y="573" type="line"/>
      <point x="576" y="581"/>
      <point x="584" y="595"/>
      <point x="588" y="608" type="curve"/>
      <point x="576" y="619" type="line"/>
      <point x="44" y="619" type="line"/>
      <point x="31" y="611"/>
      <point x="23" y="597"/>
      <point x="19" y="584" type="curve"/>
      <point x="31" y="573" type="line"/>
    </contour>
    <contour>
      <point x="253" y="610" type="curve"/>
      <point x="217" y="581" type="line"/>
      <point x="262" y="560"/>
      <point x="304" y="536"/>
      <point x="321" y="509" type="curve"/>
      <point x="320" y="504" type="line"/>
      <point x="261" y="458"/>
      <point x="182" y="425"/>
      <point x="126" y="389" type="curve" smooth="yes"/>
      <point x="83" y="362"/>
      <point x="53" y="333"/>
      <point x="53" y="296" type="curve" smooth="yes"/>
      <point x="53" y="235"/>
      <point x="121" y="183"/>
      <point x="211" y="164" type="curve"/>
      <point x="308" y="171"/>
      <point x="432" y="235"/>
      <point x="436" y="337" type="curve"/>
      <point x="415" y="390"/>
      <point x="323" y="435"/>
      <point x="271" y="451" type="curve"/>
      <point x="237" y="422" type="line"/>
      <point x="286" y="400"/>
      <point x="349" y="366"/>
      <point x="375" y="331" type="curve"/>
      <point x="363" y="278"/>
      <point x="289" y="220"/>
      <point x="213" y="211" type="curve"/>
      <point x="188" y="219"/>
      <point x="165" y="233"/>
      <point x="149" y="249" type="curve" smooth="yes"/>
      <point x="132" y="265"/>
      <point x="122" y="278"/>
      <point x="122" y="297" type="curve" smooth="yes"/>
      <point x="122" y="351"/>
      <point x="272" y="398"/>
      <point x="359" y="471" type="curve"/>
      <point x="370" y="483"/>
      <point x="376" y="497"/>
      <point x="378" y="517" type="curve"/>
      <point x="357" y="558"/>
      <point x="309" y="586"/>
    </contour>
    <contour>
      <point x="307" y="221" type="line"/>
      <point x="268" y="60" type="line"/>
      <point x="277" y="27" type="line"/>
      <point x="254" y="3" type="line"/>
      <point x="202" y="-213" type="line"/>
      <point x="213" y="-226"/>
      <point x="234" y="-236"/>
      <point x="272" y="-231" type="curve"/>
      <point x="322" y="103" type="line"/>
      <point x="373" y="234" type="line"/>
    </contour>
    <contour>
      <point x="86" y="-14" type="line"/>
      <point x="98" y="-35"/>
      <point x="110" y="-72"/>
      <point x="102" y="-105" type="curve"/>
      <point x="94" y="-109" type="line"/>
      <point x="70" y="-99"/>
      <point x="43" y="-84"/>
      <point x="25" y="-42" type="curve"/>
      <point x="11" y="-64" type="line"/>
      <point x="111" y="-28"/>
      <point x="193" y="-1"/>
      <point x="303" y="47" type="curve"/>
      <point x="300" y="91" type="line"/>
      <point x="200" y="42"/>
      <point x="82" y="-3"/>
      <point x="6" y="-18" type="curve"/>
      <point x="-8" y="-29"/>
      <point x="-19" y="-50"/>
      <point x="-18" y="-72" type="curve"/>
      <point x="4" y="-121"/>
      <point x="43" y="-147"/>
      <point x="89" y="-153" type="curve"/>
      <point x="118" y="-149"/>
      <point x="136" y="-142"/>
      <point x="151" y="-115" type="curve"/>
      <point x="158" y="-65"/>
      <point x="155" y="-34"/>
      <point x="134" y="4" type="curve"/>
    </contour>
  </outline>
</glyph>
<glyph name="dvTT_RA" format="1">
  <advance width="456"/>
  <outline>
    <contour>
      <point x="256" y="-164" type="move" name="blwm"/>
    </contour>
    <contour>
      <point x="204" y="649" type="move" name="abvm_Ekaar"/>
    </contour>
    <contour>
      <point x="378" y="227" type="curve"/>
      <point x="338" y="176"/>
      <point x="274" y="125"/>
      <point x="192" y="116" type="curve"/>
      <point x="127" y="142"/>
      <point x="92" y="180"/>
      <point x="91" y="221" type="curve" smooth="yes"/>
      <point x="90" y="250"/>
      <point x="121" y="279"/>
      <point x="164" y="308" type="curve" smooth="yes"/>
      <point x="226" y="350"/>
      <point x="315" y="397"/>
      <point x="371" y="444" type="curve"/>
      <point x="379" y="455"/>
      <point x="389" y="471"/>
      <point x="391" y="497" type="curve"/>
      <point x="361" y="548"/>
      <point x="314" y="577"/>
      <point x="251" y="606" type="curve"/>
      <point x="216" y="577" type="line"/>
      <point x="264" y="548"/>
      <point x="311" y="522"/>
      <point x="329" y="489" type="curve"/>
      <point x="328" y="482" type="line"/>
      <point x="274" y="428"/>
      <point x="182" y="384"/>
      <point x="115" y="341" type="curve" smooth="yes"/>
      <point x="58" y="305"/>
      <point x="15" y="269"/>
      <point x="15" y="219" type="curve" smooth="yes"/>
      <point x="15" y="156"/>
      <point x="87" y="89"/>
      <point x="183" y="69" type="curve"/>
      <point x="289" y="72"/>
      <point x="386" y="137"/>
      <point x="425" y="185" type="curve"/>
      <point x="420" y="213"/>
      <point x="405" y="227"/>
    </contour>
    <contour>
      <point x="563" y="573" type="line"/>
      <point x="576" y="581"/>
      <point x="584" y="595"/>
      <point x="588" y="608" type="curve"/>
      <point x="576" y="619" type="line"/>
      <point x="44" y="619" type="line"/>
      <point x="31" y="611"/>
      <point x="23" y="597"/>
      <point x="19" y="584" type="curve"/>
      <point x="31" y="573" type="line"/>
    </contour>
    <contour>
      <point x="307" y="-149" type="curve"/>
      <point x="266" y="-99"/>
      <point x="257" y="-67"/>
      <point x="253" y="3" type="curve"/>
      <point x="233" y="23"/>
      <point x="215" y="30"/>
      <point x="193" y="30" type="curve"/>
      <point x="136" y="-5"/>
      <point x="87" y="-71"/>
      <point x="44" y="-139" type="curve"/>
      <point x="43" y="-160"/>
      <point x="58" y="-186"/>
      <point x="107" y="-183" type="curve"/>
      <point x="126" y="-111"/>
      <point x="159" y="-52"/>
      <point x="204" y="-15" type="curve"/>
      <point x="209" y="-18" type="line"/>
      <point x="204" y="-79"/>
      <point x="231" y="-139"/>
      <point x="272" y="-183" type="curve"/>
      <point x="294" y="-179"/>
      <point x="309" y="-167"/>
    </contour>
  </outline>
</glyph>
<glyph name="dvT_TA" format="1">
  <advance width="784"/>
  <outline>
    <contour>
      <point x="465" y="573" type="line"/>
      <point x="478" y="581"/>
      <point x="486" y="595"/>
      <point x="490" y="608" type="curve"/>
      <point x="478" y="619" type="line"/>
      <point x="34" y="619" type="line"/>
      <point x="21" y="611"/>
      <point x="13" y="597"/>
      <point x="9" y="584" type="curve"/>
      <point x="21" y="573" type="line"/>
    </contour>
    <contour>
      <point x="382" y="324" type="line"/>
      <point x="273" y="334"/>
      <point x="173" y="338"/>
      <point x="82" y="324" type="curve"/>
      <point x="40" y="306"/>
      <point x="17" y="253"/>
      <point x="10" y="214" type="curve"/>
      <point x="36" y="124"/>
      <point x="86" y="65"/>
      <point x="162" y="-3" type="curve"/>
      <point x="189" y="3"/>
      <point x="205" y="18"/>
      <point x="205" y="34" type="curve"/>
      <point x="155" y="82"/>
      <point x="101" y="149"/>
      <point x="83" y="218" type="curve"/>
      <point x="86" y="233"/>
      <point x="92" y="247"/>
      <point x="104" y="261" type="curve"/>
      <point x="186" y="287"/>
      <point x="256" y="286"/>
      <point x="353" y="276" type="curve"/>
    </contour>
    <contour>
      <point x="826" y="619" type="line"/>
      <point x="810" y="641"/>
      <point x="785" y="649"/>
      <point x="739" y="649" type="curve"/>
      <point x="676" y="383" type="line"/>
      <point x="689" y="365" type="line"/>
      <point x="666" y="337" type="line"/>
      <point x="592" y="23" type="line"/>
      <point x="606" y="6"/>
      <point x="630" y="-5"/>
      <point x="673" y="0" type="curve"/>
      <point x="744" y="441" type="line"/>
    </contour>
    <contour>
      <point x="912" y="573" type="line"/>
      <point x="925" y="581"/>
      <point x="933" y="595"/>
      <point x="937" y="608" type="curve"/>
      <point x="925" y="619" type="line"/>
      <point x="334" y="619" type="line"/>
      <point x="321" y="611"/>
      <point x="313" y="597"/>
      <point x="309" y="584" type="curve"/>
      <point x="321" y="573" type="line"/>
    </contour>
    <contour>
      <point x="689" y="430" type="line"/>
      <point x="592" y="377"/>
      <point x="473" y="337"/>
      <point x="382" y="324" type="curve"/>
      <point x="340" y="306"/>
      <point x="317" y="253"/>
      <point x="310" y="214" type="curve"/>
      <point x="336" y="124"/>
      <point x="386" y="65"/>
      <point x="462" y="-3" type="curve"/>
      <point x="489" y="3"/>
      <point x="505" y="18"/>
      <point x="505" y="34" type="curve"/>
      <point x="455" y="82"/>
      <point x="401" y="149"/>
      <point x="383" y="218" type="curve"/>
      <point x="386" y="233"/>
      <point x="392" y="247"/>
      <point x="404" y="261" type="curve"/>
      <point x="476" y="280"/>
      <point x="633" y="337"/>
      <point x="713" y="392" type="curve"/>
    </contour>
  </outline>
</glyph>
<glyph name="dvT_T_YA" format="1">
  <advance width="1110"/>
  <outline>
    <contour>
      <point x="465" y="573" type="line"/>
      <point x="478" y="581"/>
      <point x="486" y="595"/>
      <point x="490" y="608" type="curve"/>
      <point x="478" y="619" type="line"/>
      <point x="34" y="619" type="line"/>
      <point x="21" y="611"/>
      <point x="13" y="597"/>
      <point x="9" y="584" type="curve"/>
      <point x="21" y="573" type="line"/>
    </contour>
    <contour>
      <point x="382" y="324" type="line"/>
      <point x="273" y="334"/>
      <point x="173" y="338"/>
      <point x="82" y="324" type="curve"/>
      <point x="40" y="306"/>
      <point x="17" y="253"/>
      <point x="10" y="214" type="curve"/>
      <point x="36" y="124"/>
      <point x="86" y="65"/>
      <point x="162" y="-3" type="curve"/>
      <point x="189" y="3"/>
      <point x="205" y="18"/>
      <point x="205" y="34" type="curve"/>
      <point x="155" y="82"/>
      <point x="101" y="149"/>
      <point x="83" y="218" type="curve"/>
      <point x="86" y="233"/>
      <point x="92" y="247"/>
      <point x="104" y="261" type="curve"/>
      <point x="186" y="287"/>
      <point x="256" y="286"/>
      <point x="353" y="276" type="curve"/>
    </contour>
    <contour>
      <point x="736" y="573" type="line"/>
      <point x="749" y="581"/>
      <point x="757" y="595"/>
      <point x="761" y="608" type="curve"/>
      <point x="749" y="619" type="line"/>
      <point x="305" y="619" type="line"/>
      <point x="292" y="611"/>
      <point x="284" y="597"/>
      <point x="280" y="584" type="curve"/>
      <point x="292" y="573" type="line"/>
    </contour>
    <contour>
      <point x="656" y="309" type="line"/>
      <point x="567" y="355"/>
      <point x="453" y="377"/>
      <point x="357" y="344" type="curve"/>
      <point x="315" y="326"/>
      <point x="292" y="273"/>
      <point x="285" y="234" type="curve"/>
      <point x="310" y="143"/>
      <point x="365" y="64"/>
      <point x="433" y="-3" type="curve"/>
      <point x="466" y="3"/>
      <point x="476" y="18"/>
      <point x="476" y="34" type="curve"/>
      <point x="412" y="99"/>
      <point x="370" y="164"/>
      <point x="358" y="238" type="curve"/>
      <point x="361" y="253"/>
      <point x="367" y="267"/>
      <point x="379" y="281" type="curve"/>
      <point x="456" y="320"/>
      <point x="547" y="311"/>
      <point x="619" y="267" type="curve"/>
    </contour>
    <contour>
      <point x="1152" y="619" type="line"/>
      <point x="1136" y="641"/>
      <point x="1111" y="649"/>
      <point x="1065" y="649" type="curve"/>
      <point x="990" y="328" type="line"/>
      <point x="1009" y="313" type="line"/>
      <point x="970" y="241" type="line"/>
      <point x="918" y="23" type="line"/>
      <point x="932" y="6"/>
      <point x="956" y="-5"/>
      <point x="999" y="0" type="curve"/>
      <point x="1070" y="441" type="line"/>
    </contour>
    <contour>
      <point x="1238" y="573" type="line"/>
      <point x="1251" y="581"/>
      <point x="1259" y="595"/>
      <point x="1263" y="608" type="curve"/>
      <point x="1251" y="619" type="line"/>
      <point x="622" y="619" type="line"/>
      <point x="609" y="611"/>
      <point x="601" y="597"/>
      <point x="597" y="584" type="curve"/>
      <point x="609" y="573" type="line"/>
    </contour>
    <contour>
      <point x="676" y="550" type="curve"/>
      <point x="674" y="533"/>
      <point x="689" y="521"/>
      <point x="708" y="516" type="curve"/>
      <point x="746" y="547"/>
      <point x="781" y="568"/>
      <point x="820" y="568" type="curve" smooth="yes"/>
      <point x="840" y="568"/>
      <point x="866" y="556"/>
      <point x="866" y="536" type="curve" smooth="yes"/>
      <point x="866" y="442"/>
      <point x="604" y="358"/>
      <point x="604" y="274" type="curve" smooth="yes"/>
      <point x="604" y="225"/>
      <point x="693" y="151"/>
      <point x="746" y="151" type="curve" smooth="yes"/>
      <point x="826" y="151"/>
      <point x="978" y="276"/>
      <point x="1043" y="385" type="curve"/>
      <point x="1010" y="413" type="line"/>
      <point x="955" y="315"/>
      <point x="807" y="201"/>
      <point x="756" y="201" type="curve" smooth="yes"/>
      <point x="719" y="201"/>
      <point x="674" y="244"/>
      <point x="674" y="270" type="curve" smooth="yes"/>
      <point x="674" y="327"/>
      <point x="936" y="432"/>
      <point x="936" y="539" type="curve" smooth="yes"/>
      <point x="936" y="584"/>
      <point x="866" y="619"/>
      <point x="817" y="619" type="curve" smooth="yes"/>
      <point x="773" y="619"/>
      <point x="706" y="584"/>
    </contour>
  </outline>
</glyph>
<glyph name="dvmI.a02" format="1">
  <advance width="206"/>
  <outline>
    <contour>
      <point x="520" y="673" type="move" name="abvm_Reph_alt"/>
    </contour>
    <contour>
      <point x="188" y="891" type="curve"/>
      <point x="148" y="619" type="line"/>
      <point x="34" y="619" type="line"/>
      <point x="21" y="611"/>
      <point x="13" y="597"/>
      <point x="9" y="584" type="curve"/>
      <point x="21" y="573" type="line"/>
      <point x="139" y="573" type="line"/>
      <point x="5" y="23" type="line"/>
      <point x="19" y="5"/>
      <point x="43" y="-4"/>
      <point x="86" y="0" type="curve"/>
      <point x="110" y="166"/>
      <point x="154" y="382"/>
      <point x="195" y="573" type="curve"/>
      <point x="320" y="573" type="line"/>
      <point x="333" y="581"/>
      <point x="341" y="595"/>
      <point x="345" y="608" type="curve"/>
      <point x="333" y="619" type="line"/>
      <point x="205" y="619" type="line"/>
      <point x="262" y="875" type="line"/>
      <point x="269" y="881" type="line"/>
      <point x="338" y="837"/>
      <point x="432" y="747"/>
      <point x="507" y="648" type="curve"/>
      <point x="536" y="653"/>
      <point x="557" y="667"/>
      <point x="556" y="691" type="curve"/>
      <point x="491" y="779"/>
      <point x="337" y="943"/>
      <point x="287" y="943" type="curve" smooth="yes"/>
      <point x="251" y="943"/>
      <point x="208" y="918"/>
    </contour>
  </outline>
</glyph>
<glyph name="dvmI.a03" format="1">
  <advance width="206"/>
  <outline>
    <contour>
      <point x="568" y="675" type="move" name="abvm_Reph_alt"/>
    </contour>
    <contour>
      <point x="187" y="889" type="curve"/>
      <point x="148" y="619" type="line"/>
      <point x="34" y="619" type="line"/>
      <point x="21" y="611"/>
      <point x="13" y="597"/>
      <point x="9" y="584" type="curve"/>
      <point x="21" y="573" type="line"/>
      <point x="139" y="573" type="line"/>
      <point x="5" y="23" type="line"/>
      <point x="19" y="5"/>
      <point x="43" y="-4"/>
      <point x="86" y="0" type="curve"/>
      <point x="110" y="166"/>
      <point x="154" y="382"/>
      <point x="195" y="573" type="curve"/>
      <point x="320" y="573" type="line"/>
      <point x="333" y="581"/>
      <point x="341" y="595"/>
      <point x="345" y="608" type="curve"/>
      <point x="333" y="619" type="line"/>
      <point x="205" y="619" type="line"/>
      <point x="261" y="874" type="line"/>
      <point x="268" y="880" type="line"/>
      <point x="347" y="838"/>
      <point x="470" y="749"/>
      <point x="556" y="650" type="curve"/>
      <point x="584" y="655"/>
      <point x="605" y="670"/>
      <point x="604" y="693" type="curve"/>
      <point x="527" y="782"/>
      <point x="347" y="941"/>
      <point x="286" y="941" type="curve" smooth="yes"/>
      <point x="250" y="941"/>
      <point x="208" y="916"/>
    </contour>
  </outline>
</glyph>
<glyph name="dvmI.a04" format="1">
  <advance width="206"/>
  <outline>
    <contour>
      <point x="616" y="678" type="move" name="abvm_Reph_alt"/>
    </contour>
    <contour>
      <point x="187" y="887" type="curve"/>
      <point x="148" y="619" type="line"/>
      <point x="34" y="619" type="line"/>
      <point x="21" y="611"/>
      <point x="13" y="597"/>
      <point x="9" y="584" type="curve"/>
      <point x="21" y="573" type="line"/>
      <point x="139" y="573" type="line"/>
      <point x="5" y="23" type="line"/>
      <point x="19" y="5"/>
      <point x="43" y="-4"/>
      <point x="86" y="0" type="curve"/>
      <point x="110" y="168"/>
      <point x="154" y="383"/>
      <point x="195" y="573" type="curve"/>
      <point x="320" y="573" type="line"/>
      <point x="333" y="581"/>
      <point x="341" y="595"/>
      <point x="345" y="608" type="curve"/>
      <point x="333" y="619" type="line"/>
      <point x="205" y="619" type="line"/>
      <point x="261" y="873" type="line"/>
      <point x="268" y="879" type="line"/>
      <point x="358" y="840"/>
      <point x="508" y="751"/>
      <point x="605" y="652" type="curve"/>
      <point x="633" y="658"/>
      <point x="654" y="673"/>
      <point x="652" y="696" type="curve"/>
      <point x="564" y="785"/>
      <point x="358" y="940"/>
      <point x="286" y="940" type="curve" smooth="yes"/>
      <point x="250" y="940"/>
      <point x="208" y="915"/>
    </contour>
  </outline>
</glyph>
<glyph name="dvmI.a05" format="1">
  <advance width="206"/>
  <outline>
    <contour>
      <point x="663" y="680" type="move" name="abvm_Reph_alt"/>
    </contour>
    <contour>
      <point x="187" y="884" type="curve"/>
      <point x="148" y="619" type="line"/>
      <point x="34" y="619" type="line"/>
      <point x="21" y="611"/>
      <point x="13" y="597"/>
      <point x="9" y="584" type="curve"/>
      <point x="21" y="573" type="line"/>
      <point x="139" y="573" type="line"/>
      <point x="5" y="23" type="line"/>
      <point x="19" y="5"/>
      <point x="43" y="-4"/>
      <point x="86" y="0" type="curve"/>
      <point x="110" y="168"/>
      <point x="154" y="383"/>
      <point x="195" y="573" type="curve"/>
      <point x="320" y="573" type="line"/>
      <point x="333" y="581"/>
      <point x="341" y="595"/>
      <point x="345" y="608" type="curve"/>
      <point x="333" y="619" type="line"/>
      <point x="205" y="619" type="line"/>
      <point x="261" y="871" type="line"/>
      <point x="268" y="877" type="line"/>
      <point x="367" y="841"/>
      <point x="546" y="753"/>
      <point x="654" y="654" type="curve"/>
      <point x="681" y="660"/>
      <point x="701" y="675"/>
      <point x="699" y="698" type="curve"/>
      <point x="599" y="787"/>
      <point x="367" y="938"/>
      <point x="286" y="938" type="curve" smooth="yes"/>
      <point x="249" y="938"/>
      <point x="207" y="912"/>
    </contour>
  </outline>
</glyph>
<glyph name="dvmI.a06" format="1">
  <advance width="206"/>
  <outline>
    <contour>
      <point x="710" y="682" type="move" name="abvm_Reph_alt"/>
    </contour>
    <contour>
      <point x="186" y="882" type="curve"/>
      <point x="148" y="619" type="line"/>
      <point x="34" y="619" type="line"/>
      <point x="21" y="611"/>
      <point x="13" y="597"/>
      <point x="9" y="584" type="curve"/>
      <point x="21" y="573" type="line"/>
      <point x="139" y="573" type="line"/>
      <point x="5" y="23" type="line"/>
      <point x="19" y="5"/>
      <point x="43" y="-4"/>
      <point x="86" y="0" type="curve"/>
      <point x="110" y="168"/>
      <point x="154" y="383"/>
      <point x="195" y="573" type="curve"/>
      <point x="320" y="573" type="line"/>
      <point x="333" y="581"/>
      <point x="341" y="595"/>
      <point x="345" y="608" type="curve"/>
      <point x="333" y="619" type="line"/>
      <point x="205" y="619" type="line"/>
      <point x="260" y="870" type="line"/>
      <point x="267" y="876" type="line"/>
      <point x="377" y="841"/>
      <point x="584" y="754"/>
      <point x="702" y="656" type="curve"/>
      <point x="729" y="661"/>
      <point x="749" y="677"/>
      <point x="746" y="700" type="curve"/>
      <point x="635" y="789"/>
      <point x="377" y="936"/>
      <point x="285" y="936" type="curve" smooth="yes"/>
      <point x="249" y="936"/>
      <point x="207" y="909"/>
    </contour>
  </outline>
</glyph>
<glyph name="dvmI.a07" format="1">
  <advance width="206"/>
  <outline>
    <contour>
      <point x="757" y="685" type="move" name="abvm_Reph_alt"/>
    </contour>
    <contour>
      <point x="186" y="880" type="curve"/>
      <point x="148" y="619" type="line"/>
      <point x="34" y="619" type="line"/>
      <point x="21" y="611"/>
      <point x="13" y="597"/>
      <point x="9" y="584" type="curve"/>
      <point x="21" y="573" type="line"/>
      <point x="139" y="573" type="line"/>
      <point x="5" y="23" type="line"/>
      <point x="19" y="5"/>
      <point x="43" y="-4"/>
      <point x="86" y="0" type="curve"/>
      <point x="110" y="169"/>
      <point x="154" y="384"/>
      <point x="195" y="573" type="curve"/>
      <point x="320" y="573" type="line"/>
      <point x="333" y="581"/>
      <point x="341" y="595"/>
      <point x="345" y="608" type="curve"/>
      <point x="333" y="619" type="line"/>
      <point x="205" y="619" type="line"/>
      <point x="260" y="869" type="line"/>
      <point x="267" y="875" type="line"/>
      <point x="387" y="843"/>
      <point x="622" y="757"/>
      <point x="751" y="658" type="curve"/>
      <point x="777" y="664"/>
      <point x="797" y="681"/>
      <point x="793" y="703" type="curve"/>
      <point x="671" y="793"/>
      <point x="387" y="935"/>
      <point x="285" y="935" type="curve" smooth="yes"/>
      <point x="249" y="935"/>
      <point x="206" y="908"/>
    </contour>
  </outline>
</glyph>
<glyph name="dvmI.a08" format="1">
  <advance width="206"/>
  <outline>
    <contour>
      <point x="804" y="687" type="move" name="abvm_Reph_alt"/>
    </contour>
    <contour>
      <point x="185" y="877" type="curve"/>
      <point x="147" y="619" type="line"/>
      <point x="34" y="619" type="line"/>
      <point x="21" y="611"/>
      <point x="13" y="597"/>
      <point x="9" y="584" type="curve"/>
      <point x="21" y="573" type="line"/>
      <point x="139" y="573" type="line"/>
      <point x="5" y="23" type="line"/>
      <point x="19" y="5"/>
      <point x="43" y="-4"/>
      <point x="86" y="0" type="curve"/>
      <point x="110" y="169"/>
      <point x="154" y="384"/>
      <point x="195" y="573" type="curve"/>
      <point x="320" y="573" type="line"/>
      <point x="333" y="581"/>
      <point x="341" y="595"/>
      <point x="345" y="608" type="curve"/>
      <point x="333" y="619" type="line"/>
      <point x="205" y="619" type="line"/>
      <point x="259" y="867" type="line"/>
      <point x="266" y="873" type="line"/>
      <point x="396" y="844"/>
      <point x="660" y="759"/>
      <point x="800" y="660" type="curve"/>
      <point x="825" y="666"/>
      <point x="845" y="683"/>
      <point x="840" y="705" type="curve"/>
      <point x="707" y="795"/>
      <point x="397" y="933"/>
      <point x="284" y="933" type="curve" smooth="yes"/>
      <point x="248" y="933"/>
      <point x="206" y="905"/>
    </contour>
  </outline>
</glyph>
<glyph name="dvmI.a11" format="1">
  <advance width="206"/>
  <outline>
    <contour>
      <point x="947" y="693" type="move" name="abvm_Reph_alt"/>
    </contour>
    <contour>
      <point x="185" y="869" type="curve"/>
      <point x="148" y="619" type="line"/>
      <point x="34" y="619" type="line"/>
      <point x="21" y="611"/>
      <point x="13" y="597"/>
      <point x="9" y="584" type="curve"/>
      <point x="21" y="573" type="line"/>
      <point x="139" y="573" type="line"/>
      <point x="5" y="23" type="line"/>
      <point x="19" y="5"/>
      <point x="43" y="-4"/>
      <point x="86" y="0" type="curve"/>
      <point x="110" y="169"/>
      <point x="155" y="384"/>
      <point x="195" y="573" type="curve"/>
      <point x="320" y="573" type="line"/>
      <point x="333" y="581"/>
      <point x="341" y="595"/>
      <point x="345" y="608" type="curve"/>
      <point x="333" y="619" type="line"/>
      <point x="205" y="619" type="line"/>
      <point x="259" y="862" type="line"/>
      <point x="266" y="868" type="line"/>
      <point x="426" y="847"/>
      <point x="774" y="764"/>
      <point x="947" y="666" type="curve"/>
      <point x="970" y="672"/>
      <point x="990" y="690"/>
      <point x="983" y="711" type="curve"/>
      <point x="816" y="802"/>
      <point x="428" y="927"/>
      <point x="284" y="927" type="curve" smooth="yes"/>
      <point x="247" y="927"/>
      <point x="205" y="898"/>
    </contour>
  </outline>
</glyph>
<glyph name="dvmI.a12" format="1">
  <advance width="206"/>
  <outline>
    <contour>
      <point x="994" y="695" type="move" name="abvm_Reph_alt"/>
    </contour>
    <contour>
      <point x="184" y="867" type="curve"/>
      <point x="148" y="619" type="line"/>
      <point x="34" y="619" type="line"/>
      <point x="21" y="611"/>
      <point x="13" y="597"/>
      <point x="9" y="584" type="curve"/>
      <point x="21" y="573" type="line"/>
      <point x="139" y="573" type="line"/>
      <point x="5" y="23" type="line"/>
      <point x="19" y="5"/>
      <point x="43" y="-4"/>
      <point x="86" y="0" type="curve"/>
      <point x="110" y="170"/>
      <point x="154" y="384"/>
      <point x="195" y="573" type="curve"/>
      <point x="320" y="573" type="line"/>
      <point x="333" y="581"/>
      <point x="341" y="595"/>
      <point x="345" y="608" type="curve"/>
      <point x="333" y="619" type="line"/>
      <point x="205" y="619" type="line"/>
      <point x="258" y="861" type="line"/>
      <point x="265" y="867" type="line"/>
      <point x="436" y="848"/>
      <point x="812" y="766"/>
      <point x="995" y="668" type="curve"/>
      <point x="1019" y="674"/>
      <point x="1038" y="692"/>
      <point x="1030" y="713" type="curve"/>
      <point x="852" y="804"/>
      <point x="438" y="925"/>
      <point x="283" y="925" type="curve" smooth="yes"/>
      <point x="247" y="925"/>
      <point x="204" y="896"/>
    </contour>
  </outline>
</glyph>
<glyph name="dvmI.a14" format="1">
  <advance width="206"/>
  <outline>
    <contour>
      <point x="1094" y="672" type="move" name="abvm_Reph_alt"/>
    </contour>
    <contour>
      <point x="184" y="862" type="curve"/>
      <point x="148" y="619" type="line"/>
      <point x="34" y="619" type="line"/>
      <point x="21" y="611"/>
      <point x="13" y="597"/>
      <point x="9" y="584" type="curve"/>
      <point x="21" y="573" type="line"/>
      <point x="139" y="573" type="line"/>
      <point x="5" y="23" type="line"/>
      <point x="19" y="5"/>
      <point x="43" y="-4"/>
      <point x="86" y="0" type="curve"/>
      <point x="111" y="170"/>
      <point x="155" y="385"/>
      <point x="196" y="573" type="curve"/>
      <point x="320" y="573" type="line"/>
      <point x="333" y="581"/>
      <point x="341" y="595"/>
      <point x="345" y="608" type="curve"/>
      <point x="333" y="619" type="line"/>
      <point x="206" y="619" type="line"/>
      <point x="258" y="858" type="line"/>
      <point x="265" y="864" type="line"/>
      <point x="456" y="850"/>
      <point x="888" y="770"/>
      <point x="1094" y="672" type="curve"/>
      <point x="1120" y="689"/>
      <point x="1128" y="707"/>
      <point x="1116" y="723" type="curve"/>
      <point x="925" y="809"/>
      <point x="459" y="922"/>
      <point x="283" y="922" type="curve" smooth="yes"/>
      <point x="247" y="922"/>
      <point x="204" y="891"/>
    </contour>
  </outline>
</glyph>
<glyph name="dvmI.a15" format="1">
  <advance width="206"/>
  <outline>
    <contour>
      <point x="1143" y="674" type="move" name="abvm_Reph_alt"/>
    </contour>
    <contour>
      <point x="184" y="860" type="curve"/>
      <point x="148" y="619" type="line"/>
      <point x="34" y="619" type="line"/>
      <point x="21" y="611"/>
      <point x="13" y="597"/>
      <point x="9" y="584" type="curve"/>
      <point x="21" y="573" type="line"/>
      <point x="139" y="573" type="line"/>
      <point x="5" y="23" type="line"/>
      <point x="19" y="5"/>
      <point x="43" y="-4"/>
      <point x="86" y="0" type="curve"/>
      <point x="111" y="171"/>
      <point x="155" y="385"/>
      <point x="196" y="573" type="curve"/>
      <point x="320" y="573" type="line"/>
      <point x="333" y="581"/>
      <point x="341" y="595"/>
      <point x="345" y="608" type="curve"/>
      <point x="333" y="619" type="line"/>
      <point x="206" y="619" type="line"/>
      <point x="258" y="857" type="line"/>
      <point x="265" y="863" type="line"/>
      <point x="466" y="851"/>
      <point x="926" y="772"/>
      <point x="1143" y="674" type="curve"/>
      <point x="1166" y="690"/>
      <point x="1174" y="707"/>
      <point x="1167" y="723" type="curve"/>
      <point x="961" y="812"/>
      <point x="469" y="921"/>
      <point x="283" y="921" type="curve" smooth="yes"/>
      <point x="246" y="921"/>
      <point x="203" y="889"/>
    </contour>
  </outline>
</glyph>
<glyph name="dvmI.a16" format="1">
  <advance width="206"/>
  <outline>
    <contour>
      <point x="1192" y="676" type="move" name="abvm_Reph_alt"/>
    </contour>
    <contour>
      <point x="183" y="858" type="curve"/>
      <point x="148" y="619" type="line"/>
      <point x="34" y="619" type="line"/>
      <point x="21" y="611"/>
      <point x="13" y="597"/>
      <point x="9" y="584" type="curve"/>
      <point x="21" y="573" type="line"/>
      <point x="139" y="573" type="line"/>
      <point x="5" y="23" type="line"/>
      <point x="19" y="5"/>
      <point x="43" y="-4"/>
      <point x="86" y="0" type="curve"/>
      <point x="111" y="171"/>
      <point x="155" y="385"/>
      <point x="196" y="573" type="curve"/>
      <point x="320" y="573" type="line"/>
      <point x="333" y="581"/>
      <point x="341" y="595"/>
      <point x="345" y="608" type="curve"/>
      <point x="333" y="619" type="line"/>
      <point x="206" y="619" type="line"/>
      <point x="257" y="856" type="line"/>
      <point x="264" y="862" type="line"/>
      <point x="476" y="853"/>
      <point x="964" y="774"/>
      <point x="1192" y="676" type="curve"/>
      <point x="1212" y="688"/>
      <point x="1221" y="710"/>
      <point x="1211" y="726" type="curve"/>
      <point x="997" y="815"/>
      <point x="479" y="919"/>
      <point x="282" y="919" type="curve" smooth="yes"/>
      <point x="246" y="919"/>
      <point x="203" y="887"/>
    </contour>
  </outline>
</glyph>
<glyph name="dvmI.a18" format="1">
  <advance width="207"/>
  <outline>
    <contour>
      <point x="1290" y="680" type="move" name="abvm_Reph_alt"/>
    </contour>
    <contour>
      <point x="183" y="853" type="curve"/>
      <point x="148" y="619" type="line"/>
      <point x="34" y="619" type="line"/>
      <point x="21" y="611"/>
      <point x="13" y="597"/>
      <point x="9" y="584" type="curve"/>
      <point x="21" y="573" type="line"/>
      <point x="140" y="573" type="line"/>
      <point x="5" y="23" type="line"/>
      <point x="19" y="5"/>
      <point x="43" y="-4"/>
      <point x="86" y="0" type="curve"/>
      <point x="111" y="172"/>
      <point x="156" y="386"/>
      <point x="196" y="573" type="curve"/>
      <point x="320" y="573" type="line"/>
      <point x="333" y="581"/>
      <point x="341" y="595"/>
      <point x="345" y="608" type="curve"/>
      <point x="333" y="619" type="line"/>
      <point x="206" y="619" type="line"/>
      <point x="257" y="853" type="line"/>
      <point x="264" y="859" type="line"/>
      <point x="496" y="855"/>
      <point x="1040" y="778"/>
      <point x="1290" y="680" type="curve"/>
      <point x="1309" y="692"/>
      <point x="1318" y="712"/>
      <point x="1308" y="731" type="curve"/>
      <point x="1069" y="820"/>
      <point x="499" y="916"/>
      <point x="282" y="916" type="curve" smooth="yes"/>
      <point x="245" y="916"/>
      <point x="202" y="883"/>
    </contour>
  </outline>
</glyph>
<glyph name="dvmI.a19" format="1">
  <advance width="206"/>
  <outline>
    <contour>
      <point x="1338" y="682" type="move" name="abvm_Reph_alt"/>
    </contour>
    <contour>
      <point x="182" y="850" type="curve"/>
      <point x="148" y="619" type="line"/>
      <point x="34" y="619" type="line"/>
      <point x="21" y="611"/>
      <point x="13" y="597"/>
      <point x="9" y="584" type="curve"/>
      <point x="21" y="573" type="line"/>
      <point x="139" y="573" type="line"/>
      <point x="5" y="23" type="line"/>
      <point x="19" y="5"/>
      <point x="43" y="-4"/>
      <point x="86" y="0" type="curve"/>
      <point x="111" y="172"/>
      <point x="155" y="386"/>
      <point x="196" y="573" type="curve"/>
      <point x="320" y="573" type="line"/>
      <point x="333" y="581"/>
      <point x="341" y="595"/>
      <point x="345" y="608" type="curve"/>
      <point x="333" y="619" type="line"/>
      <point x="206" y="619" type="line"/>
      <point x="256" y="851" type="line"/>
      <point x="263" y="857" type="line"/>
      <point x="505" y="856"/>
      <point x="1078" y="780"/>
      <point x="1338" y="682" type="curve"/>
      <point x="1361" y="696"/>
      <point x="1366" y="715"/>
      <point x="1359" y="731" type="curve"/>
      <point x="1105" y="822"/>
      <point x="509" y="914"/>
      <point x="281" y="914" type="curve" smooth="yes"/>
      <point x="244" y="914"/>
      <point x="202" y="880"/>
    </contour>
  </outline>
</glyph>
